<svg id="visual" viewBox="0 0 900 600" width="900" height="600" xmlns="http://www.w3.org/2000/svg" xmlns:xlink="http://www.w3.org/1999/xlink" version="1.1"><rect x="0" y="0" width="900" height="600" fill="#ffffff"></rect><path d="M0 432L21.5 431C43 430 86 428 128.8 436.8C171.7 445.7 214.3 465.3 257.2 447.7C300 430 343 375 385.8 360.3C428.7 345.7 471.3 371.3 514.2 375.3C557 379.3 600 361.7 642.8 344C685.7 326.3 728.3 308.7 771.2 316C814 323.3 857 355.7 878.5 371.8L900 388L900 601L878.5 601C857 601 814 601 771.2 601C728.3 601 685.7 601 642.8 601C600 601 557 601 514.2 601C471.3 601 428.7 601 385.8 601C343 601 300 601 257.2 601C214.3 601 171.7 601 128.8 601C86 601 43 601 21.5 601L0 601Z" fill="#46FFD3" stroke-linecap="round" stroke-linejoin="miter"></path></svg>